<?xml version="1.0" encoding="UTF-8"?>
<svg id="Layer_1" data-name="Layer 1" xmlns="http://www.w3.org/2000/svg" xmlns:xlink="http://www.w3.org/1999/xlink" viewBox="0 0 789.41 278.85">
  <defs>
    <style>
      .cls-1 {
        fill: none;
      }

      .cls-2, .cls-3 {
        fill: #be2328;
      }

      .cls-4, .cls-5, .cls-6, .cls-7, .cls-8 {
        fill: #263e80;
      }

      .cls-4, .cls-6, .cls-8 {
        font-family: Gotham-Light, 'Gotham Light';
        font-weight: 300;
      }

      .cls-4, .cls-9, .cls-3 {
        font-size: 54.79px;
      }

      .cls-5, .cls-6 {
        font-size: 29.86px;
      }

      .cls-5, .cls-9, .cls-3 {
        font-family: Gotham-Bold, Gotham;
        font-weight: 700;
      }

      .cls-10 {
        fill: #f6e003;
      }

      .cls-8 {
        font-size: 16.34px;
      }

      .cls-11 {
        letter-spacing: 0em;
      }

      .cls-12, .cls-9 {
        fill: #fff;
      }

      .cls-13 {
        letter-spacing: 0em;
      }

      .cls-14 {
        letter-spacing: 0em;
      }

      .cls-15 {
        letter-spacing: -.02em;
      }

      .cls-16 {
        letter-spacing: -.01em;
      }

      .cls-17 {
        letter-spacing: -.02em;
      }

      .cls-18 {
        letter-spacing: -.02em;
      }

      .cls-19 {
        letter-spacing: -.05em;
      }

      .cls-20 {
        letter-spacing: -.04em;
      }

      .cls-21 {
        letter-spacing: -.01em;
      }

      .cls-22 {
        clip-path: url(#clippath);
      }
    </style>
    <clipPath id="clippath">
      <rect class="cls-1" width="789.41" height="278.85"/>
    </clipPath>
  </defs>
  <rect class="cls-12" x="55.74" y="50.93" width="176.99" height="176.99" transform="translate(-56.34 142.82) rotate(-45)"/>
  <g class="cls-22">
    <path class="cls-7" d="M143.22,13.27L18.07,138.41c-.27.27-.42.64-.42,1.01s.15.75.42,1.02l125.15,125.15c.56.55,1.47.55,2.03,0l125.15-125.15c.28-.27.43-.63.43-1.02s-.15-.74-.43-1.01L145.25,13.27c-.27-.27-.63-.43-1.02-.43s-.74.16-1.01.43M144.23,16.31c1.99,1.98,121.14,121.13,123.12,123.11-1.98,1.98-121.13,121.14-123.12,123.12-1.98-1.98-121.14-121.14-123.11-123.12,1.98-1.98,121.14-121.14,123.11-123.11"/>
    <polygon class="cls-10" points="144.23 23.1 260.56 139.43 144.23 255.76 27.9 139.43 144.23 23.1"/>
    <path class="cls-7" d="M143.62,22.48L26.68,139.42l117.55,117.55,117.56-117.55L144.23,21.87l-.6.61ZM144.23,24.32c1.21,1.19,113.92,113.9,115.12,115.11-1.2,1.2-113.91,113.92-115.12,115.11-1.2-1.2-113.91-113.91-115.11-115.11,1.19-1.2,113.91-113.91,115.11-115.11"/>
    <polygon class="cls-12" points="144.23 34.73 248.93 139.42 144.23 244.12 39.54 139.42 144.23 34.73"/>
    <path class="cls-7" d="M143.62,34.11l-105.31,105.31,105.91,105.92,105.92-105.92-105.92-105.92-.6.61ZM144.23,35.94c1.2,1.2,102.29,102.29,103.49,103.48-1.2,1.2-102.29,102.28-103.49,103.47-1.2-1.19-102.28-102.27-103.47-103.47,1.2-1.19,102.28-102.28,103.47-103.48"/>
    <rect class="cls-7" x="77.29" y="72.6" width="133.66" height="133.66" transform="translate(-56.38 142.74) rotate(-45)"/>
    <path class="cls-7" d="M143.51,44.3l-95.12,95.12,95.72,95.73,95.73-95.73-95.73-95.73-.61.61ZM144.11,46.13c1.2,1.2,92.1,92.1,93.29,93.29-1.2,1.2-92.1,92.1-93.29,93.3-1.19-1.19-92.1-92.09-93.29-93.3,1.19-1.19,92.09-92.09,93.29-93.29"/>
    <path class="cls-10" d="M48.59,246.67s19.15-9.7,44.46-15.84c0,0,4.25-.71,2.12-7.56-2.12-6.85-2.12-7.8-2.12-7.8,0,0,21.04-7.81,49.18-7.81s59.59,11.82,74.72,19.87c0,0,1.18,3.3-6.63,1.65-7.8-1.65-10.9-4.3-19.62,0-1.06.52-.11,2.22,3.42,3.58,3.53,1.36,32.95,9.78,45.21,16.96l-5.85-24.89,18.48-13.21-25.56-10.82,3.16-8.24s2.1-4.5-4.21-7.76c-6.31-3.25-29.3-18.19-75.63-19.91-46.34-1.72-78.86,12.22-88.65,19.73-5.74,4.4-3.43,7.54-2.59,9.08,1.24,2.29,2.4,5.27,2.4,5.27l-24.89,9.96,18.38,13.97-5.78,23.76Z"/>
    <path class="cls-12" d="M70.03,225.74s.9,2.51,5.46,1.61c4.55-.92,12.83-4.76,20.23.2,0,0,.37-.72-.13-2.63-.5-1.94-2.52-9.3-2.52-9.3,0,0-11.62,3.3-23.04,10.14"/>
    <path class="cls-12" d="M193.08,217.34l-2.72,12.17s5.77-3.94,12.27-2.28c6.5,1.68,12.93,3.51,13.54.21,0,0-10.06-6.06-23.09-10.1"/>
    <path class="cls-7" d="M252.55,211.61s0-.04,0-.06c-.03-.21-.16-.38-.35-.47,0,0-24.07-10.18-25.05-10.6.35-.91,2.96-7.72,2.96-7.72,0,0,.37-.79.37-1.98,0-1.77-.81-4.41-4.85-6.48l-2.05-1.11c-8.6-4.72-31.43-17.29-73.82-18.86-49.41-1.83-81.02,13.7-89.02,19.84-2.91,2.23-4.04,4.15-4.04,5.7,0,1.41.49,2.8.98,3.61l.3.51c.92,1.7,2.01,3.7,2.24,4.65-.88.35-24.43,9.78-24.43,9.78-.2.08-.33.25-.36.45,0,.02,0,.05,0,.08,0,.18.08.35.22.46,0,0,17.5,13.3,18.08,13.75-.17.7-5.68,23.38-5.68,23.38-.01.04-.02.1-.02.14,0,.17.08.34.22.45.17.14.42.15.62.06.19-.1,19.39-9.74,44.33-15.8.02,0,1.5-.26,2.43-1.78.5-.8.74-1.78.74-2.94,0-1.81-.61-3.58-1.08-5.32-.41-1.49-.82-2.98-1.22-4.48-.09-.35-.19-.7-.28-1.05,3.24-1.13,23.04-7.59,48.47-7.59,17.27,0,35.47,4.46,50.17,9.53l-2.61,11.62c-.05.14-.08.29-.07.46.05,1.18,1.62,2.47,4.2,3.46.77.29,2.7.9,5.38,1.75,9.78,3.09,30.15,9.55,39.74,15.17.19.13.45.1.63-.03.15-.11.24-.29.24-.46,0-.04,0-.09-.02-.13,0,0-5.57-23.78-5.74-24.51.6-.43,18.15-12.98,18.15-12.98.16-.12.25-.29.25-.47M94.65,228.99c-.65,1.08-1.65,1.27-1.7,1.27-21.73,5.28-39.1,13.24-43.51,15.36.52-2.14,5.48-22.57,5.48-22.57.01-.03.02-.08.02-.14,0-.17-.08-.35-.22-.46,0,0-16.1-12.24-17.58-13.36,1.59-.64,20.27-8.11,23.47-9.39l8.7,25.42h0s.09.23.09.23l.02.07h0s.06.17.06.17c.04.12,1.06,2.95,6.04,1.95l2.88-.72c4.62-1.28,10.94-3.02,16.72.72-.08.55-.24,1.05-.49,1.46M92.62,216.34c.21.98.74,2.99,2,7.08.32,1.04.5,1.98.55,2.83-6.06-3.55-12.64-1.78-17.07-.55l-2.79.7c-2.87.58-4.08-.28-4.54-.83,9.54-5.63,19.31-8.46,21.85-9.24M92.84,214.68c-.12.03-11.39,3.28-22.54,9.82-.84-2.49-8.94-25.88-8.94-25.88-.28-.74-1.29-3.2-2.39-5.2l-.34-.57c-.47-.76-.76-1.92-.76-2.99,0-1.28.99-2.83,3.54-4.78,7.92-6.07,39.22-21.43,88.28-19.6,42.12,1.56,64.79,14.03,73.32,18.73l2.06,1.12c3.56,1.83,4.26,4.02,4.26,5.46,0,.89-.27,1.49-.29,1.55l-3.17,8.26s0-.02,0,0l-9.38,26.04c-2.33-1.21-5.21-2.59-8.54-4.04-3.98-1.74-7.91-3.49-12.02-4.9-6.56-2.25-13.18-4.33-19.91-6.01-7.08-1.77-14.28-3.12-21.54-3.92-4.07-.44-8.18-.68-12.26-.68-25.29,0-45.72,6.34-49.39,7.61M207.47,223.62c4.51,2.11,7.31,3.59,8.39,4.22-.1.17-.38.54-.57.65-1.28.81-3.9.37-7.32-.47-.66-.17-1.29-.34-1.91-.52-1.14-.31-2.21-.6-3.27-.82h-.02c-4.35-1.13-8.32.14-10.63,1.2-.3.13-.61.27-.92.41.44-1.96,2.02-9.03,2.27-10.16,5.19,1.82,9.93,3.7,13.99,5.48M233.15,224.36c-.14.11-.24.28-.24.46,0,.06,0,.1.02.13,0,0,5.01,21.36,5.54,23.63-10.08-5.52-29.37-11.64-38.83-14.63-2.66-.84-4.58-1.45-5.31-1.73-2.4-.93-3.32-1.93-3.45-2.36.42-.26,1.51-.89,3.04-1.44.13-.05.27-.1.4-.15.1-.03.2-.07.3-.1.21-.06.42-.13.62-.19.18-.05.36-.09.55-.14.11-.02.23-.06.34-.08.24-.06.49-.1.75-.15.06-.01.12-.02.18-.03.24-.04.49-.07.74-.1.1-.01.21-.02.31-.03.08,0,.17,0,.26-.02,1.34-.08,2.58.05,3.85.3.08.02.16.03.24.05l2.05.54c1.38.36,2.73.72,4.02,1.02.53.13,1.08.26,1.66.38,1.71.37,3.5.6,5.21.1,1.29-.37,1.6-1.41,2.04-2.57.01-.02.01.02,0,0l9.29-25.7c3.54,1.5,22.46,9.51,24.04,10.18-1.52,1.09-17.64,12.61-17.64,12.61"/>
    <path class="cls-7" d="M76.92,187.72l-5.13,2.28,4.62,23.45,3.86-1.85-1.18-5.8,4.62-2.19,3.36,5.04,3.95-2.02-14.12-18.91ZM78.17,202.61l-2.18-10.09,5.55,8.66-3.37,1.43Z"/>
    <polygon class="cls-7" points="86.24 184.28 92.88 206.72 104.48 203.28 103.47 200 95.9 202.19 90.45 183.11 86.24 184.28"/>
    <polygon class="cls-7" points="129.86 176.47 130.7 199.67 142.63 199.23 142.63 195.88 134.65 196.21 133.89 176.21 129.86 176.47"/>
    <path class="cls-7" d="M156.08,176.81l-5.46-.42-6.73,22.84,4.37.44,1.18-5.72h5.62l.76,6.3h3.95l-3.69-23.44ZM150.53,190.34l2.61-10.76,1.09,10.76h-3.7Z"/>
    <polygon class="cls-7" points="162.21 200.67 166.33 201.26 168.09 184.28 172.13 202.1 176.5 202.86 179.94 179.75 175.74 179.15 173.81 195.88 169.94 178.32 165.32 177.64 162.21 200.67"/>
    <path class="cls-7" d="M194.39,183.36l-8.32-2.27-5.8,22.44,7.06,2.18s3.11,1.18,5.71-.5c2.61-1.68,3.62-6.05,5.39-13.03,1.76-6.96-4.04-8.82-4.04-8.82M194.39,190c0,1.17-1.17,5.21-2.35,9.23-1.18,4.05-4.55,3.03-4.55,3.03l-2.44-.75,4.29-16.04,2.06.37c4.16,1.13,2.98,2.98,2.98,4.16"/>
    <path class="cls-7" d="M210.19,188.74l-14.28,19.16,4.2,1.85,3.44-5.12,4.96,2.26-1.6,5.8,4.29,2.02,4.37-23.45-5.39-2.52ZM209.01,203.53l-3.69-1.77,6.13-9.15-2.44,10.92Z"/>
    <path class="cls-7" d="M120.53,177.06l-5.63.83-2.36,23.45,4.29-.59v-5.63l5.54-.84,1.77,5.8,4.62-.59-8.23-22.43ZM117.34,191.68l.67-11.51,3.11,10.9-3.78.61Z"/>
    <path class="cls-12" d="M188.95,51.35v52.54h-35.04v-52.57h-20.59v31.89h-20.18v20.4h-34.76v-52.34h-19.65v105.19h170.8V51.35h-40.57ZM96.05,131.54h-16.67v-5.66h16.67v5.66ZM153.93,136.59v-15.14l6.91,15.14h-6.91ZM187.65,136.59h-6.91l6.91-15.14v15.14Z"/>
    <rect class="cls-2" x="212.49" y="57.34" width="10.62" height="92.92"/>
    <rect class="cls-2" x="63.06" y="57.34" width="10.61" height="92.92"/>
    <polygon class="cls-2" points="205.67 150.4 205.67 57.34 195.06 57.34 195.06 139.17 177.25 139.17 188.13 109.99 154.34 109.99 164.07 139.17 148.24 139.17 148.24 57.34 139.34 57.34 139.34 139.17 130.13 139.17 130.13 109.99 120.61 109.99 120.61 139.17 111.56 139.17 111.56 109.99 82.53 109.99 82.53 121.07 101.73 121.07 101.73 139.17 82.5 139.17 82.5 150.4 205.67 150.4"/>
    <rect class="cls-2" x="120.61" y="90.3" width="9.52" height="9.52"/>
    <polygon class="cls-12" points="171.19 132.32 171.19 132.32 166.87 120.19 175.1 120.19 171.19 132.32"/>
    <path class="cls-7" d="M229.52,50.77h-41.15v52.53h-33.89v-52.57h-21.75v31.89h-20.19v20.4h-33.6v-52.34h-20.8v106.33h171.95V50.77h-.58ZM228.95,51.92v103.94H59.3V51.83h18.51v52.34h35.9v-20.4h20.18v-31.89h19.45v52.57h36.19v-52.53h39.42Z"/>
  </g>
  <text class="cls-3" transform="translate(297.27 174.78)"><tspan x="0" y="0">AL ALAN</tspan><tspan class="cls-19" x="257.41" y="0">D</tspan><tspan x="297.52" y="0">A</tspan></text>
  <text class="cls-9" transform="translate(638.08 174.78)"><tspan x="0" y="0"> </tspan></text>
  <text class="cls-4" transform="translate(654.52 174.78)"><tspan class="cls-17" x="0" y="0">C</tspan><tspan class="cls-20" x="39.39" y="0">O</tspan><tspan class="cls-14" x="83.83" y="0">.</tspan></text>
  <text class="cls-8" transform="translate(656.72 203.57)"><tspan x="0" y="0">SINCE 1</tspan><tspan class="cls-15" x="61.22" y="0">9</tspan><tspan class="cls-18" x="71.3" y="0">7</tspan><tspan class="cls-13" x="80.58" y="0">6</tspan></text>
  <path class="cls-7" d="M302.59,114.96c-2.72,0-4.72-.65-5.99-1.94-1.27-1.3-1.91-3.08-1.91-5.34,0-1.07.17-2.1.51-3.09.34-.99.85-1.87,1.53-2.63.69-.76,1.55-1.37,2.6-1.83s2.29-.69,3.72-.69c.98,0,1.94.04,2.87.13.94.09,1.85.21,2.74.36v11.63h3v3.4h-9.08ZM299.13,97.55c-.65,0-1.2-.23-1.63-.7-.44-.47-.65-1.03-.65-1.68s.22-1.18.65-1.65c.44-.47.98-.7,1.63-.7s1.19.23,1.62.7c.42.47.64,1.02.64,1.65s-.21,1.21-.64,1.68c-.42.47-.96.7-1.62.7ZM304.52,111.56v-8.56c-.35-.09-.69-.15-1.01-.18s-.61-.05-.85-.05c-1.13,0-2.02.38-2.68,1.14-.65.76-.98,1.8-.98,3.1,0,.61.07,1.19.21,1.73.14.54.37,1.02.69,1.44.32.41.72.75,1.22,1,.5.25,1.12.38,1.86.38h1.53ZM304.45,97.55c-.65,0-1.2-.23-1.63-.7-.44-.47-.65-1.03-.65-1.68s.22-1.18.65-1.65c.44-.47.98-.7,1.63-.7s1.19.23,1.62.7c.42.47.64,1.02.64,1.65s-.21,1.21-.64,1.68c-.42.47-.96.7-1.62.7ZM312.71,122.11c-.65,0-1.2-.23-1.63-.7-.44-.47-.65-1.03-.65-1.68s.22-1.18.65-1.65c.44-.47.98-.7,1.63-.7s1.19.23,1.62.7c.42.47.64,1.02.64,1.65s-.21,1.21-.64,1.68c-.42.47-.96.7-1.62.7ZM311.02,111.56h4.57v-11.63h4.15v11.63h3.07v3.4h-11.79v-3.4ZM318.04,122.11c-.65,0-1.2-.23-1.63-.7-.44-.47-.65-1.03-.65-1.68s.22-1.18.65-1.65c.44-.47.98-.7,1.63-.7s1.19.23,1.62.7c.42.47.64,1.02.64,1.65s-.21,1.21-.64,1.68c-.42.47-.96.7-1.62.7ZM322.15,111.56h4.57v-11.63h4.15v15.02h-8.72v-3.4ZM324.47,95.14c.13,0,.29,0,.49.02.2.01.41.03.64.05.23.02.45.05.67.08.22.03.4.07.56.11-.2-.17-.33-.4-.41-.67-.08-.27-.11-.57-.11-.9,0-.39.08-.76.24-1.11.16-.35.4-.66.72-.95.32-.28.71-.51,1.18-.67.47-.16,1.02-.24,1.65-.24.33,0,.69.04,1.09.13.4.09.77.21,1.09.36l-.72,1.93c-.2-.11-.44-.2-.72-.28-.28-.08-.57-.11-.85-.11-.33,0-.6.09-.83.28-.23.19-.34.43-.34.73,0,.83.67,1.24,2.02,1.24h1.7v2.42h-8.07v-2.42ZM336.65,94.65c-.39-.04-.84-.08-1.36-.11-.51-.03-1.01-.07-1.49-.11v-2.61c1.05-.15,2.17-.27,3.38-.36,1.21-.09,2.42-.11,3.64-.07v23.58h-4.18v-20.31ZM344.75,111.56h9.57c0-.76-.09-1.59-.28-2.48-.19-.89-.56-1.77-1.13-2.63-.57-.86-1.37-1.66-2.4-2.4-1.03-.74-2.4-1.33-4.1-1.76l.33-3.56c2.2.28,4.04.85,5.54,1.71,1.49.86,2.69,1.88,3.61,3.05s1.57,2.46,1.98,3.85c.4,1.39.6,2.77.6,4.12v.1h2.09v3.4h-15.81v-3.4ZM348.44,96.54c-.65,0-1.21-.23-1.68-.7-.47-.47-.7-1.03-.7-1.68s.23-1.18.7-1.65,1.03-.7,1.68-.7,1.21.23,1.67.7c.46.47.69,1.02.69,1.65s-.23,1.21-.69,1.68c-.46.47-1.01.7-1.67.7ZM359.91,111.56h1.73c2.24,0,4.29-.41,6.14-1.24-.48-.46-.94-.9-1.37-1.34-.44-.44-.9-.85-1.39-1.24-.49-.39-1.04-.76-1.65-1.11-.61-.35-1.34-.67-2.19-.98l.46-3.56c1.31-.91,2.67-1.64,4.08-2.19,1.42-.54,2.86-.82,4.34-.82,1.2,0,2.24.15,3.14.46.89.31,1.64.72,2.24,1.24.6.52,1.05,1.14,1.34,1.85.29.71.44,1.48.44,2.3,0,.96-.27,1.89-.82,2.81-.54.91-1.31,1.8-2.29,2.65.61.35,1.19.63,1.73.85.54.22,1.21.33,1.99.33h1.08v3.4h-1.24c-1.5,0-2.83-.2-3.97-.6-1.14-.4-2.17-.94-3.09-1.62-1.31.7-2.69,1.24-4.16,1.63-1.47.39-2.93.59-4.39.59h-2.16v-3.4ZM371.17,108.36c.59-.5,1.03-1.02,1.32-1.57.29-.54.44-1.07.44-1.57,0-.81-.28-1.45-.85-1.93-.57-.48-1.33-.72-2.29-.72-.85,0-1.61.14-2.27.41-.66.27-1.29.6-1.88,1,.57.22,1.07.47,1.52.77.45.29.88.62,1.31.98s.85.76,1.27,1.19c.42.44.9.91,1.42,1.44ZM369.05,96.77c-.65,0-1.21-.23-1.68-.7-.47-.47-.7-1.03-.7-1.68s.23-1.18.7-1.65c.47-.47,1.03-.7,1.68-.7s1.21.23,1.67.7c.46.47.69,1.02.69,1.65s-.23,1.21-.69,1.68c-.46.47-1.01.7-1.67.7ZM378.26,111.56h4.47v-20.22h4.18v23.61h-8.65v-3.4ZM393.35,94.65c-.39-.04-.84-.08-1.36-.11-.51-.03-1.01-.07-1.49-.11v-2.61c1.05-.15,2.17-.27,3.38-.36,1.21-.09,2.42-.11,3.64-.07v23.58h-4.18v-20.31ZM408.57,111.56h9.57c0-.76-.09-1.59-.28-2.48-.19-.89-.56-1.77-1.13-2.63-.57-.86-1.37-1.66-2.4-2.4-1.03-.74-2.4-1.33-4.1-1.76l.33-3.56c2.2.28,4.04.85,5.54,1.71,1.49.86,2.69,1.88,3.61,3.05s1.57,2.46,1.98,3.85c.4,1.39.6,2.77.6,4.12v3.49h-13.72v-3.4ZM427.09,94.65c-.39-.04-.84-.08-1.36-.11-.51-.03-1.01-.07-1.49-.11v-2.61c1.05-.15,2.17-.27,3.38-.36,1.21-.09,2.42-.11,3.64-.07v23.58h-4.18v-20.31ZM439.46,123.09c-.63,0-1.33-.03-2.11-.1-.77-.07-1.42-.14-1.94-.23l-.23-3.69c.74.17,1.5.3,2.27.39.77.09,1.54.13,2.3.13,1.81,0,3.16-.41,4.07-1.24.9-.83,1.38-1.96,1.42-3.4h-1.93c-1.48,0-2.72-.19-3.72-.57-1-.38-1.81-.9-2.43-1.55-.62-.65-1.07-1.43-1.34-2.32-.27-.89-.41-1.84-.41-2.84s.16-2.06.47-3.04c.32-.98.82-1.86,1.5-2.63.69-.77,1.56-1.39,2.61-1.86,1.06-.47,2.31-.7,3.77-.7.98,0,1.94.04,2.87.13.94.09,1.85.21,2.74.36v11.63h3.07v3.4h-3.07c-.02.96-.22,1.92-.59,2.87-.37.96-.95,1.83-1.73,2.61-.78.78-1.8,1.42-3.04,1.91s-2.77.73-4.57.73ZM445.25,111.56v-8.56c-.35-.09-.69-.15-1.01-.18-.33-.03-.61-.05-.85-.05-1.09,0-1.97.38-2.65,1.13-.68.75-1.01,1.79-1.01,3.12,0,1.44.32,2.55.96,3.35.64.8,1.65,1.19,3.02,1.19h1.53ZM463.7,114.96c-1.02,0-1.92-.09-2.68-.26-.76-.17-1.41-.4-1.94-.67-.53-.27-.96-.58-1.27-.91-.32-.34-.54-.66-.67-.96-.31.91-.83,1.61-1.57,2.09-.74.48-1.79.72-3.14.72h-.62v-3.4h1.31c.41,0,.78-.11,1.09-.33.32-.22.58-.51.78-.87.21-.36.36-.76.47-1.21.11-.45.16-.89.16-1.32,0-1.44.18-2.68.56-3.74.37-1.06.9-1.93,1.58-2.61s1.51-1.2,2.47-1.53c.96-.34,2.02-.51,3.2-.51,1.09,0,2.05.19,2.87.57.83.38,1.52.93,2.07,1.63.56.71.98,1.55,1.27,2.53.29.98.44,2.07.44,3.27v4.12h3.07v3.4h-9.47ZM465.92,111.56v-4.7c0-1.39-.27-2.42-.82-3.09-.54-.66-1.24-1-2.09-1s-1.6.38-2.19,1.13-.88,1.71-.88,2.89c0,1.72.32,2.94.95,3.67.63.73,1.75,1.09,3.36,1.09h1.67ZM472.52,111.56h4.47v-20.22h4.18v23.61h-8.65v-3.4ZM487.6,94.65c-.39-.04-.84-.08-1.36-.11-.51-.03-1.01-.07-1.49-.11v-2.61c1.05-.15,2.17-.27,3.38-.36,1.21-.09,2.42-.11,3.64-.07v23.58h-4.18v-20.31ZM510.89,114.96c-5.38,0-8.07-2.54-8.07-7.61,0-1.24.18-2.35.56-3.33.37-.98.89-1.81,1.57-2.48.67-.67,1.49-1.19,2.45-1.55.96-.36,2.04-.54,3.23-.54s2.14.2,2.97.6c.83.4,1.52.96,2.07,1.67.56.71.96,1.55,1.22,2.53.26.98.39,2.05.39,3.2v7.51h-6.4ZM507.23,97.55c-.65,0-1.2-.23-1.63-.7-.44-.47-.65-1.03-.65-1.68s.22-1.18.65-1.65c.44-.47.98-.7,1.63-.7s1.19.23,1.62.7c.42.47.64,1.02.64,1.65s-.21,1.21-.64,1.68c-.42.47-.96.7-1.62.7ZM513.11,111.56v-4.7c0-1.31-.26-2.31-.77-3.02-.51-.71-1.22-1.06-2.14-1.06s-1.6.36-2.19,1.08-.88,1.7-.88,2.94c0,1.72.32,2.94.96,3.67.64.73,1.76,1.09,3.35,1.09h1.67ZM512.56,97.55c-.65,0-1.2-.23-1.63-.7-.44-.47-.65-1.03-.65-1.68s.22-1.18.65-1.65c.44-.47.98-.7,1.63-.7s1.19.23,1.62.7c.42.47.64,1.02.64,1.65s-.21,1.21-.64,1.68c-.42.47-.96.7-1.62.7ZM519.32,123.12c-.59,0-1.15-.03-1.7-.1l.33-3.4c.48.07.96.1,1.44.1,1.37,0,2.38-.32,3.04-.96.65-.64.98-1.81.98-3.51v-15.32h4.18v15.15c0,1.05-.12,2.05-.36,3.02-.24.97-.67,1.82-1.29,2.56-.62.74-1.46,1.33-2.53,1.78-1.07.45-2.43.67-4.08.67ZM533.36,94.65c-.39-.04-.84-.08-1.36-.11-.51-.03-1.01-.07-1.49-.11v-2.61c1.05-.15,2.17-.27,3.38-.36,1.21-.09,2.42-.11,3.64-.07v20.18h2.74v3.4h-6.92v-20.31ZM539.63,111.56h11.1v-2.94c0-.98-.1-1.81-.31-2.48-.21-.67-.55-1.22-1.03-1.65-.48-.42-1.09-.73-1.85-.93-.75-.2-1.67-.29-2.76-.29-.61,0-1.17.01-1.68.03-.51.02-.95.05-1.32.1l.33-3.33c.37-.04.79-.08,1.27-.1.48-.02,1.07-.03,1.76-.03,1.83,0,3.37.21,4.64.62,1.26.41,2.29.98,3.07,1.7s1.34,1.56,1.68,2.53c.34.97.51,2.01.51,3.12v3.66h3.07v3.4h-18.49v-3.4ZM546,122.11c-.65,0-1.21-.23-1.68-.7-.47-.47-.7-1.03-.7-1.68s.23-1.18.7-1.65c.47-.47,1.03-.7,1.68-.7s1.21.23,1.67.7c.46.47.69,1.02.69,1.65s-.23,1.21-.69,1.68c-.46.47-1.01.7-1.67.7ZM557.46,111.56h4.57v-11.63h4.15v11.63h3.07v3.4h-11.79v-3.4ZM560.76,97.55c-.65,0-1.2-.23-1.63-.7-.44-.47-.65-1.03-.65-1.68s.22-1.18.65-1.65c.44-.47.98-.7,1.63-.7s1.19.23,1.62.7c.42.47.64,1.02.64,1.65s-.21,1.21-.64,1.68c-.42.47-.96.7-1.62.7ZM566.08,97.55c-.65,0-1.2-.23-1.63-.7-.44-.47-.65-1.03-.65-1.68s.22-1.18.65-1.65c.44-.47.98-.7,1.63-.7s1.19.23,1.62.7c.42.47.64,1.02.64,1.65s-.21,1.21-.64,1.68c-.42.47-.96.7-1.62.7ZM568.6,111.56h4.47v-20.22h4.18v23.61h-8.65v-3.4ZM590.81,94.65c-.39-.04-.84-.08-1.36-.11-.51-.03-1.01-.07-1.49-.11v-2.61c1.05-.15,2.17-.27,3.38-.36,1.21-.09,2.42-.11,3.64-.07v23.58h-4.18v-20.31ZM598.91,111.56h9.57c0-.76-.09-1.59-.28-2.48-.19-.89-.56-1.77-1.13-2.63-.57-.86-1.37-1.66-2.4-2.4-1.03-.74-2.4-1.33-4.1-1.76l.33-3.56c2.2.28,4.04.85,5.54,1.71,1.49.86,2.69,1.88,3.61,3.05s1.57,2.46,1.98,3.85c.4,1.39.6,2.77.6,4.12v.1h2.09v3.4h-15.81v-3.4ZM614.06,111.56h4.57v-11.63h4.15v11.63h2.74v3.4h-11.46v-3.4ZM620.69,97.52c-.65,0-1.21-.23-1.68-.7-.47-.47-.7-1.03-.7-1.68s.23-1.18.7-1.65c.47-.47,1.03-.7,1.68-.7s1.21.23,1.67.7c.46.47.69,1.02.69,1.65s-.23,1.21-.69,1.68c-.46.47-1.01.7-1.67.7ZM624.87,111.56h4.47v-20.22h4.18v20.22h3.07v3.4h-11.72v-3.4ZM635.94,111.56h1.73c2.24,0,4.29-.41,6.14-1.24-.48-.46-.94-.9-1.37-1.34-.44-.44-.9-.85-1.39-1.24-.49-.39-1.04-.76-1.65-1.11-.61-.35-1.34-.67-2.19-.98l.46-3.56c1.31-.91,2.67-1.64,4.08-2.19,1.42-.54,2.86-.82,4.34-.82,1.2,0,2.24.15,3.14.46.89.31,1.64.72,2.24,1.24.6.52,1.05,1.14,1.34,1.85.29.71.44,1.48.44,2.3,0,.96-.27,1.89-.82,2.81-.54.91-1.31,1.8-2.29,2.65.61.35,1.19.63,1.73.85.54.22,1.21.33,1.99.33h1.08v3.4h-1.24c-1.5,0-2.83-.2-3.97-.6-1.14-.4-2.17-.94-3.09-1.62-1.31.7-2.69,1.24-4.16,1.63-1.47.39-2.93.59-4.39.59h-2.16v-3.4ZM647.21,108.36c.59-.5,1.03-1.02,1.32-1.57.29-.54.44-1.07.44-1.57,0-.81-.28-1.45-.85-1.93-.57-.48-1.33-.72-2.29-.72-.85,0-1.61.14-2.27.41-.66.27-1.29.6-1.88,1,.57.22,1.07.47,1.52.77.45.29.88.62,1.31.98.42.36.85.76,1.27,1.19.42.44.9.91,1.42,1.44ZM654.3,111.56h4.47v-20.22h4.18v23.61h-8.65v-3.4ZM669.38,94.65c-.39-.04-.84-.08-1.36-.11-.51-.03-1.01-.07-1.49-.11v-2.61c1.05-.15,2.17-.27,3.38-.36,1.21-.09,2.42-.11,3.64-.07v23.58h-4.18v-20.31ZM692.51,114.96c-2.72,0-4.72-.65-5.99-1.94-1.27-1.3-1.91-3.08-1.91-5.34,0-1.07.17-2.1.51-3.09.34-.99.85-1.87,1.53-2.63.69-.76,1.55-1.37,2.6-1.83s2.29-.69,3.72-.69c.98,0,1.94.04,2.87.13.94.09,1.85.21,2.74.36v11.63h3v3.4h-9.08ZM689.05,97.55c-.65,0-1.2-.23-1.63-.7-.44-.47-.65-1.03-.65-1.68s.22-1.18.65-1.65c.44-.47.98-.7,1.63-.7s1.19.23,1.62.7c.42.47.64,1.02.64,1.65s-.21,1.21-.64,1.68c-.42.47-.96.7-1.62.7ZM694.43,111.56v-8.56c-.35-.09-.69-.15-1.01-.18-.33-.03-.61-.05-.85-.05-1.13,0-2.02.38-2.68,1.14-.65.76-.98,1.8-.98,3.1,0,.61.07,1.19.21,1.73.14.54.37,1.02.69,1.44.32.41.72.75,1.22,1,.5.25,1.12.38,1.86.38h1.53ZM694.37,97.55c-.65,0-1.2-.23-1.63-.7-.44-.47-.65-1.03-.65-1.68s.22-1.18.65-1.65c.44-.47.98-.7,1.63-.7s1.19.23,1.62.7c.42.47.64,1.02.64,1.65s-.21,1.21-.64,1.68c-.42.47-.96.7-1.62.7ZM700.93,111.56h9.77c-.02-1.18-.23-2.31-.64-3.41-.4-1.1-1.01-2.07-1.81-2.92-.81-.85-1.82-1.55-3.04-2.11-1.22-.56-2.67-.89-4.34-1v-2.97c2.5-1.37,4.95-2.75,7.35-4.13,2.39-1.38,4.82-2.76,7.28-4.13v4.51c-.74.39-1.43.75-2.06,1.08-.63.33-1.27.66-1.93,1-.65.34-1.35.69-2.09,1.06-.74.37-1.57.8-2.48,1.27,1.39.46,2.59,1.08,3.58,1.86.99.78,1.81,1.69,2.45,2.73.64,1.03,1.11,2.18,1.4,3.43.29,1.25.44,2.6.44,4.03v3.1h-13.88v-3.4ZM716.87,123.12c-.59,0-1.15-.03-1.7-.1l.33-3.4c.48.07.96.1,1.44.1,1.37,0,2.38-.32,3.04-.96.65-.64.98-1.81.98-3.51v-15.32h4.18v11.63h3.07v3.4h-3.07v.13c0,1.05-.12,2.05-.36,3.02-.24.97-.67,1.82-1.29,2.56-.62.74-1.46,1.33-2.53,1.78-1.07.45-2.43.67-4.08.67ZM737.67,115.29c-.91,0-1.78-.21-2.6-.64-.82-.42-1.49-1.08-2.01-1.98-.5.94-1.09,1.55-1.78,1.85-.69.29-1.43.44-2.24.44h-1.5v-3.4h1.18c.59,0,1.1-.14,1.53-.41.44-.27.79-.64,1.08-1.11.28-.47.49-1.01.64-1.63.14-.62.21-1.28.21-1.98v-6.5h4.18v8.52c0,1.18.19,2.02.57,2.55.38.52.92.78,1.62.78.96,0,1.61-.42,1.96-1.26.35-.84.52-2.2.52-4.1v-6.5h4.12v9.08c0,1.7.77,2.55,2.32,2.55h1.99v-4.96c0-1.57-.06-2.98-.18-4.25-.12-1.26-.27-2.43-.44-3.49l4.21-.56c.17,1,.31,2.18.41,3.53.1,1.35.15,2.74.15,4.18v8.95h-6.37c-1.33,0-2.39-.19-3.18-.57-.8-.38-1.4-.97-1.81-1.78-.54.87-1.18,1.53-1.89,1.99s-1.61.69-2.68.69ZM741.37,97.55c-.59,0-1.08-.21-1.47-.64-.39-.42-.59-.93-.59-1.52s.2-1.06.59-1.49.88-.64,1.47-.64,1.07.21,1.45.64c.38.42.57.92.57,1.49s-.19,1.09-.57,1.52c-.38.42-.87.64-1.45.64ZM743.72,93.31c-.54,0-1-.2-1.36-.6-.36-.4-.54-.85-.54-1.36,0-.54.18-1.01.54-1.39.36-.38.81-.57,1.36-.57s1,.19,1.36.57c.36.38.54.84.54,1.39,0,.5-.18.95-.54,1.36-.36.4-.81.6-1.36.6ZM746.17,97.55c-.59,0-1.08-.21-1.47-.64-.39-.42-.59-.93-.59-1.52s.2-1.06.59-1.49.88-.64,1.47-.64,1.07.21,1.45.64c.38.42.57.92.57,1.49s-.19,1.09-.57,1.52c-.38.42-.87.64-1.45.64Z"/>
  <text class="cls-5" transform="translate(297.62 204.8)"><tspan x="0" y="0">FOO</tspan><tspan class="cls-21" x="70.36" y="0">D</tspan><tspan class="cls-16" x="93.42" y="0">S</tspan><tspan class="cls-11" x="112.08" y="0">TUFF </tspan></text>
  <text class="cls-6" transform="translate(499.78 204.8)"><tspan x="0" y="0">TRADING</tspan></text>
</svg>