<?xml version="1.0" encoding="UTF-8"?>
<svg id="Layer_1" data-name="Layer 1" xmlns="http://www.w3.org/2000/svg" viewBox="0 0 302.61 266.7">
  <defs>
    <style>
      .cls-1 {
        fill: #263e80;
        fill-rule: evenodd;
      }
    </style>
  </defs>
  <path class="cls-1" d="M82.52,144.28l44.34-9.39V55.55c3.89-5.64,12.27-11.88,17.88-15.3v90.69l21.43-4.33v-61.77c3.62-5.12,12.53-11.67,17.95-14.98v72.83l50.54-10.61c.24,7.98-1.24,15.17-5.37,21.13l-45.17,9.37v20.18l50.86-10.42c.24,7.98-1.24,15.17-5.37,21.13l-63.41,13.04v-19.88l-.09-20.16-21.38,4.22v26.35c-3.16,7.54-9.57,15.09-13.88,20.85-1.19,1.59-1.05,2.18-2.93,2.58l-60.3,12.66c-.38-5.52.77-12.72,5.78-20.96l53.47-11.14v-26.32s-50.12,10.53-50.12,10.53c-.38-5.52.77-12.72,5.78-20.96h0ZM172.32,204.93l62.72-12.67c.24,7.98-2.22,15.13-5.37,21.13l-63.47,13.06c.31-6.52,2.26-13.66,6.12-21.52h0Z"/>
</svg>